<?xml version="1.0" encoding="UTF-8"?>
<svg xmlns="http://www.w3.org/2000/svg" width="1760.0" height="882.0" viewBox="0 0 1760.0 882.0" preserveAspectRatio="xMidYMin meet" style="background-color: #1a1a1a; max-width: 100%; height: auto;">
    <text x="40" y="40" fill="#fff" font-family="sans-serif" font-size="20" font-weight="bold">SpikesPeak Architecture: NpxSynthRipples</text>
    <g id="legend">
        <rect x="40" y="58" width="14" height="14" rx="3" fill="#2d3748" stroke="#ed8936" stroke-width="1"/>
        <text x="59" y="70" fill="#cbd5e0" font-family="sans-serif" font-size="12">Config</text>
        <rect x="125" y="58" width="14" height="14" rx="3" fill="#2a4365" stroke="#4299e1" stroke-width="1"/>
        <text x="144" y="70" fill="#cbd5e0" font-family="sans-serif" font-size="12">DataSource</text>
        <rect x="237" y="58" width="14" height="14" rx="3" fill="#22543d" stroke="#48bb78" stroke-width="1"/>
        <text x="256" y="70" fill="#cbd5e0" font-family="sans-serif" font-size="12">Data</text>
        <rect x="309" y="58" width="14" height="14" rx="3" fill="#44337a" stroke="#9f7aea" stroke-width="1"/>
        <text x="328" y="70" fill="#cbd5e0" font-family="sans-serif" font-size="12">DataInterpreter</text>
        <rect x="454" y="58" width="14" height="14" rx="3" fill="#742a2a" stroke="#f56565" stroke-width="1"/>
        <text x="473" y="70" fill="#cbd5e0" font-family="sans-serif" font-size="12">Processor</text>
        <rect x="559" y="58" width="14" height="14" rx="3" fill="#1a202c" stroke="#a0aec0" stroke-width="1"/>
        <text x="578" y="70" fill="#cbd5e0" font-family="sans-serif" font-size="12">Sink</text>
        <path d="M 631 65 l 26 0" stroke="#f6ad55" stroke-width="2" stroke-dasharray="6 4"/>
        <text x="663" y="70" fill="#cbd5e0" font-family="sans-serif" font-size="12">auto-provisioned in C++ (not in the profile)</text>
    </g>
    <g id="edges">
        <path d="M 880.0 182.0 C 880.0 207.8, 880.0 224.0, 880.0 242.0 L 880.0 268.0" fill="none" stroke="#4a5568" stroke-width="1.0" opacity="0.35"/>
        <path d="M 952.0 446.0 C 952.0 489.0, 880.0 489.0, 880.0 532.0" fill="none" stroke="#718096" stroke-width="1.6" opacity="0.75"/>
        <path d="M 952.0 446.0 C 952.0 555.0, 588.9 555.0, 588.9 664.0" fill="none" stroke="#f6ad55" stroke-width="1.6" opacity="0.75" stroke-dasharray="6 4"/>
        <path d="M 952.0 446.0 C 952.0 555.0, 732.9 555.0, 732.9 664.0" fill="none" stroke="#f6ad55" stroke-width="1.6" opacity="0.75" stroke-dasharray="6 4"/>
        <path d="M 952.0 446.0 C 952.0 555.0, 876.9 555.0, 876.9 664.0" fill="none" stroke="#718096" stroke-width="1.6" opacity="0.75"/>
        <path d="M 952.0 446.0 C 952.0 555.0, 1171.1 555.0, 1171.1 664.0" fill="none" stroke="#f6ad55" stroke-width="1.6" opacity="0.75" stroke-dasharray="6 4"/>
        <path d="M 880.0 578.0 C 880.0 621.0, 1024.0 621.0, 1024.0 664.0" fill="none" stroke="#718096" stroke-width="1.6" opacity="0.75"/>
        <path d="M 653.9 687.0 C 679.9 687.0, 690.0 423.0, 664.0 446.0" fill="none" stroke="#f6ad55" stroke-width="1.6" opacity="0.75" stroke-dasharray="6 4"/>
        <path d="M 797.9 687.0 C 823.9 687.0, 834.0 423.0, 808.0 446.0" fill="none" stroke="#f6ad55" stroke-width="1.6" opacity="0.75" stroke-dasharray="6 4"/>
        <path d="M 1024.0 710.0 C 1024.0 753.0, 880.0 753.0, 880.0 796.0" fill="none" stroke="#718096" stroke-width="1.6" opacity="0.75"/>
        <path d="M 1236.1 687.0 C 1262.1 687.0, 1122.0 423.0, 1096.0 446.0" fill="none" stroke="#f6ad55" stroke-width="1.6" opacity="0.75" stroke-dasharray="6 4"/>
        <path d="M 880.0 314.0 C 880.0 357.0, 952.0 357.0, 952.0 400.0" fill="none" stroke="#718096" stroke-width="1.6" opacity="0.75"/>
    </g>
    <g id="nodes">
        <text x="40" y="128.0" fill="#8d979e" font-family="sans-serif" font-size="12" font-weight="bold" letter-spacing="1.2">CONFIG</text>
        <text x="40" y="260.0" fill="#8d979e" font-family="sans-serif" font-size="12" font-weight="bold" letter-spacing="1.2">DATASOURCE</text>
        <text x="40" y="392.0" fill="#8d979e" font-family="sans-serif" font-size="12" font-weight="bold" letter-spacing="1.2">DATA</text>
        <text x="40" y="524.0" fill="#8d979e" font-family="sans-serif" font-size="12" font-weight="bold" letter-spacing="1.2">DATAINTERPRETER</text>
        <text x="40" y="656.0" fill="#8d979e" font-family="sans-serif" font-size="12" font-weight="bold" letter-spacing="1.2">PROCESSOR</text>
        <text x="40" y="788.0" fill="#8d979e" font-family="sans-serif" font-size="12" font-weight="bold" letter-spacing="1.2">SINK</text>
        <rect x="760.8" y="136.0" width="238.5" height="46" rx="6" fill="#2d3748" stroke="#ed8936" stroke-width="1.6"/>
        <text x="880.0" y="156.0" fill="#fff" font-family="sans-serif" font-size="12" text-anchor="middle">NpxSynthRipples.yaml</text>
        <text x="880.0" y="171.0" fill="#cbd5e0" font-family="sans-serif" font-size="10" text-anchor="middle">(NPX 2.0 Synthetic Ripples (play file))</text>
        <rect x="599.0" y="400.0" width="130.0" height="46" rx="6" fill="#22543d" stroke="#48bb78" stroke-width="1.6"/>
        <text x="664.0" y="427.0" fill="#fff" font-family="sans-serif" font-size="12" text-anchor="middle">data.audio</text>
        <rect x="743.0" y="400.0" width="130.0" height="46" rx="6" fill="#22543d" stroke="#48bb78" stroke-width="1.6"/>
        <text x="808.0" y="427.0" fill="#fff" font-family="sans-serif" font-size="12" text-anchor="middle">data.lfp</text>
        <rect x="887.0" y="400.0" width="130.0" height="46" rx="6" fill="#22543d" stroke="#48bb78" stroke-width="1.6"/>
        <text x="952.0" y="427.0" fill="#fff" font-family="sans-serif" font-size="12" text-anchor="middle">data.npx.raw</text>
        <rect x="1031.0" y="400.0" width="130.0" height="46" rx="6" fill="#22543d" stroke="#48bb78" stroke-width="1.6"/>
        <text x="1096.0" y="427.0" fill="#fff" font-family="sans-serif" font-size="12" text-anchor="middle">data.spike</text>
        <rect x="815.0" y="532.0" width="130.0" height="46" rx="6" fill="#44337a" stroke="#9f7aea" stroke-width="1.6"/>
        <text x="880.0" y="559.0" fill="#fff" font-family="sans-serif" font-size="12" text-anchor="middle">interp.npx.raw</text>
        <rect x="523.9" y="664.0" width="130.0" height="46" rx="6" fill="#742a2a" stroke="#f56565" stroke-width="1.6"/>
        <text x="588.9" y="691.0" fill="#fff" font-family="sans-serif" font-size="12" text-anchor="middle">proc.audio</text>
        <rect x="667.9" y="664.0" width="130.0" height="46" rx="6" fill="#742a2a" stroke="#f56565" stroke-width="1.6"/>
        <text x="732.9" y="691.0" fill="#fff" font-family="sans-serif" font-size="12" text-anchor="middle">proc.lfp</text>
        <rect x="811.9" y="664.0" width="130.0" height="46" rx="6" fill="#742a2a" stroke="#f56565" stroke-width="1.6"/>
        <text x="876.9" y="691.0" fill="#fff" font-family="sans-serif" font-size="12" text-anchor="middle">proc.npx.display</text>
        <rect x="955.9" y="664.0" width="136.2" height="46" rx="6" fill="#742a2a" stroke="#f56565" stroke-width="1.6"/>
        <text x="1024.0" y="691.0" fill="#fff" font-family="sans-serif" font-size="12" text-anchor="middle">proc.npx.record…</text>
        <rect x="1106.1" y="664.0" width="130.0" height="46" rx="6" fill="#742a2a" stroke="#f56565" stroke-width="1.6"/>
        <text x="1171.1" y="691.0" fill="#fff" font-family="sans-serif" font-size="12" text-anchor="middle">proc.spike</text>
        <rect x="815.0" y="796.0" width="130.0" height="46" rx="6" fill="#1a202c" stroke="#a0aec0" stroke-width="1.6"/>
        <text x="880.0" y="816.0" fill="#fff" font-family="sans-serif" font-size="12" text-anchor="middle">File:</text>
        <text x="880.0" y="831.0" fill="#cbd5e0" font-family="sans-serif" font-size="10" text-anchor="middle">raw.bin</text>
        <rect x="792.1" y="268.0" width="175.8" height="46" rx="6" fill="#2a4365" stroke="#4299e1" stroke-width="1.6"/>
        <text x="880.0" y="295.0" fill="#fff" font-family="sans-serif" font-size="12" text-anchor="middle">source.npx.synthripples</text>
    </g>
</svg>
