<?xml version="1.0" encoding="UTF-8"?>
<svg xmlns="http://www.w3.org/2000/svg" width="1760.0" height="882.0" viewBox="0 0 1760.0 882.0" preserveAspectRatio="xMidYMin meet" style="background-color: #1a1a1a; max-width: 100%; height: auto;">
    <text x="40" y="40" fill="#fff" font-family="sans-serif" font-size="20" font-weight="bold">SpikesPeak Architecture: SimNpx2NiDaqRipples</text>
    <g id="legend">
        <rect x="40" y="58" width="14" height="14" rx="3" fill="#2d3748" stroke="#ed8936" stroke-width="1"/>
        <text x="59" y="70" fill="#cbd5e0" font-family="sans-serif" font-size="12">Config</text>
        <rect x="125" y="58" width="14" height="14" rx="3" fill="#2a4365" stroke="#4299e1" stroke-width="1"/>
        <text x="144" y="70" fill="#cbd5e0" font-family="sans-serif" font-size="12">DataSource</text>
        <rect x="237" y="58" width="14" height="14" rx="3" fill="#22543d" stroke="#48bb78" stroke-width="1"/>
        <text x="256" y="70" fill="#cbd5e0" font-family="sans-serif" font-size="12">Data</text>
        <rect x="309" y="58" width="14" height="14" rx="3" fill="#44337a" stroke="#9f7aea" stroke-width="1"/>
        <text x="328" y="70" fill="#cbd5e0" font-family="sans-serif" font-size="12">DataInterpreter</text>
        <rect x="454" y="58" width="14" height="14" rx="3" fill="#742a2a" stroke="#f56565" stroke-width="1"/>
        <text x="473" y="70" fill="#cbd5e0" font-family="sans-serif" font-size="12">Processor</text>
        <rect x="559" y="58" width="14" height="14" rx="3" fill="#1a202c" stroke="#a0aec0" stroke-width="1"/>
        <text x="578" y="70" fill="#cbd5e0" font-family="sans-serif" font-size="12">Sink</text>
        <path d="M 631 65 l 26 0" stroke="#f6ad55" stroke-width="2" stroke-dasharray="6 4"/>
        <text x="663" y="70" fill="#cbd5e0" font-family="sans-serif" font-size="12">auto-provisioned in C++ (not in the profile)</text>
    </g>
    <g id="edges">
        <path d="M 880.0 182.0 C 880.0 207.8, 808.0 224.0, 808.0 242.0 L 808.0 268.0" fill="none" stroke="#4a5568" stroke-width="1.0" opacity="0.35"/>
        <path d="M 880.0 182.0 C 880.0 207.8, 952.0 224.0, 952.0 242.0 L 952.0 268.0" fill="none" stroke="#4a5568" stroke-width="1.0" opacity="0.35"/>
        <path d="M 736.0 446.0 C 736.0 555.0, 1259.2 555.0, 1259.2 664.0" fill="none" stroke="#f6ad55" stroke-width="1.6" opacity="0.75" stroke-dasharray="6 4"/>
        <path d="M 880.0 446.0 C 880.0 489.0, 808.0 489.0, 808.0 532.0" fill="none" stroke="#718096" stroke-width="1.6" opacity="0.75"/>
        <path d="M 880.0 446.0 C 880.0 555.0, 641.5 555.0, 641.5 664.0" fill="none" stroke="#718096" stroke-width="1.6" opacity="0.75"/>
        <path d="M 1024.0 446.0 C 1024.0 489.0, 952.0 489.0, 952.0 532.0" fill="none" stroke="#718096" stroke-width="1.6" opacity="0.75"/>
        <path d="M 1024.0 446.0 C 1024.0 555.0, 347.1 555.0, 347.1 664.0" fill="none" stroke="#f6ad55" stroke-width="1.6" opacity="0.75" stroke-dasharray="6 4"/>
        <path d="M 1024.0 446.0 C 1024.0 555.0, 491.1 555.0, 491.1 664.0" fill="none" stroke="#f6ad55" stroke-width="1.6" opacity="0.75" stroke-dasharray="6 4"/>
        <path d="M 1024.0 446.0 C 1024.0 555.0, 955.3 555.0, 955.3 664.0" fill="none" stroke="#718096" stroke-width="1.6" opacity="0.75"/>
        <path d="M 1024.0 446.0 C 1024.0 555.0, 1412.9 555.0, 1412.9 664.0" fill="none" stroke="#f6ad55" stroke-width="1.6" opacity="0.75" stroke-dasharray="6 4"/>
        <path d="M 808.0 578.0 C 808.0 621.0, 801.6 621.0, 801.6 664.0" fill="none" stroke="#718096" stroke-width="1.6" opacity="0.75"/>
        <path d="M 952.0 578.0 C 952.0 621.0, 1102.4 621.0, 1102.4 664.0" fill="none" stroke="#718096" stroke-width="1.6" opacity="0.75"/>
        <path d="M 412.1 687.0 C 438.1 687.0, 618.0 423.0, 592.0 446.0" fill="none" stroke="#f6ad55" stroke-width="1.6" opacity="0.75" stroke-dasharray="6 4"/>
        <path d="M 556.1 687.0 C 582.1 687.0, 762.0 423.0, 736.0 446.0" fill="none" stroke="#f6ad55" stroke-width="1.6" opacity="0.75" stroke-dasharray="6 4"/>
        <path d="M 801.6 710.0 C 801.6 753.0, 808.0 753.0, 808.0 796.0" fill="none" stroke="#718096" stroke-width="1.6" opacity="0.75"/>
        <path d="M 1102.4 710.0 C 1102.4 753.0, 952.0 753.0, 952.0 796.0" fill="none" stroke="#718096" stroke-width="1.6" opacity="0.75"/>
        <path d="M 1477.9 687.0 C 1503.9 687.0, 1194.0 423.0, 1168.0 446.0" fill="none" stroke="#f6ad55" stroke-width="1.6" opacity="0.75" stroke-dasharray="6 4"/>
        <path d="M 808.0 314.0 C 808.0 357.0, 880.0 357.0, 880.0 400.0" fill="none" stroke="#718096" stroke-width="1.6" opacity="0.75"/>
        <path d="M 952.0 314.0 C 952.0 357.0, 1024.0 357.0, 1024.0 400.0" fill="none" stroke="#718096" stroke-width="1.6" opacity="0.75"/>
    </g>
    <g id="nodes">
        <text x="40" y="128.0" fill="#8d979e" font-family="sans-serif" font-size="12" font-weight="bold" letter-spacing="1.2">CONFIG</text>
        <text x="40" y="260.0" fill="#8d979e" font-family="sans-serif" font-size="12" font-weight="bold" letter-spacing="1.2">DATASOURCE</text>
        <text x="40" y="392.0" fill="#8d979e" font-family="sans-serif" font-size="12" font-weight="bold" letter-spacing="1.2">DATA</text>
        <text x="40" y="524.0" fill="#8d979e" font-family="sans-serif" font-size="12" font-weight="bold" letter-spacing="1.2">DATAINTERPRETER</text>
        <text x="40" y="656.0" fill="#8d979e" font-family="sans-serif" font-size="12" font-weight="bold" letter-spacing="1.2">PROCESSOR</text>
        <text x="40" y="788.0" fill="#8d979e" font-family="sans-serif" font-size="12" font-weight="bold" letter-spacing="1.2">SINK</text>
        <rect x="733.2" y="136.0" width="293.5" height="46" rx="6" fill="#2d3748" stroke="#ed8936" stroke-width="1.6"/>
        <text x="880.0" y="156.0" fill="#fff" font-family="sans-serif" font-size="12" text-anchor="middle">SimNpx2NiDaqRipples.yaml</text>
        <text x="880.0" y="171.0" fill="#cbd5e0" font-family="sans-serif" font-size="10" text-anchor="middle">(Simulated NPX 2.0 Multishank + NI-DAQ + Ripples)</text>
        <rect x="527.0" y="400.0" width="130.0" height="46" rx="6" fill="#22543d" stroke="#48bb78" stroke-width="1.6"/>
        <text x="592.0" y="427.0" fill="#fff" font-family="sans-serif" font-size="12" text-anchor="middle">data.audio</text>
        <rect x="671.0" y="400.0" width="130.0" height="46" rx="6" fill="#22543d" stroke="#48bb78" stroke-width="1.6"/>
        <text x="736.0" y="427.0" fill="#fff" font-family="sans-serif" font-size="12" text-anchor="middle">data.lfp</text>
        <rect x="815.0" y="400.0" width="130.0" height="46" rx="6" fill="#22543d" stroke="#48bb78" stroke-width="1.6"/>
        <text x="880.0" y="427.0" fill="#fff" font-family="sans-serif" font-size="12" text-anchor="middle">data.nidaq.raw</text>
        <rect x="959.0" y="400.0" width="130.0" height="46" rx="6" fill="#22543d" stroke="#48bb78" stroke-width="1.6"/>
        <text x="1024.0" y="427.0" fill="#fff" font-family="sans-serif" font-size="12" text-anchor="middle">data.npx.raw</text>
        <rect x="1103.0" y="400.0" width="130.0" height="46" rx="6" fill="#22543d" stroke="#48bb78" stroke-width="1.6"/>
        <text x="1168.0" y="427.0" fill="#fff" font-family="sans-serif" font-size="12" text-anchor="middle">data.spike</text>
        <rect x="743.0" y="532.0" width="130.0" height="46" rx="6" fill="#44337a" stroke="#9f7aea" stroke-width="1.6"/>
        <text x="808.0" y="559.0" fill="#fff" font-family="sans-serif" font-size="12" text-anchor="middle">interp.nidaq.raw</text>
        <rect x="887.0" y="532.0" width="130.0" height="46" rx="6" fill="#44337a" stroke="#9f7aea" stroke-width="1.6"/>
        <text x="952.0" y="559.0" fill="#fff" font-family="sans-serif" font-size="12" text-anchor="middle">interp.npx.raw</text>
        <rect x="282.1" y="664.0" width="130.0" height="46" rx="6" fill="#742a2a" stroke="#f56565" stroke-width="1.6"/>
        <text x="347.1" y="691.0" fill="#fff" font-family="sans-serif" font-size="12" text-anchor="middle">proc.audio</text>
        <rect x="426.1" y="664.0" width="130.0" height="46" rx="6" fill="#742a2a" stroke="#f56565" stroke-width="1.6"/>
        <text x="491.1" y="691.0" fill="#fff" font-family="sans-serif" font-size="12" text-anchor="middle">proc.lfp</text>
        <rect x="570.1" y="664.0" width="142.8" height="46" rx="6" fill="#742a2a" stroke="#f56565" stroke-width="1.6"/>
        <text x="641.5" y="691.0" fill="#fff" font-family="sans-serif" font-size="12" text-anchor="middle">proc.nidaq.display</text>
        <rect x="726.9" y="664.0" width="149.4" height="46" rx="6" fill="#742a2a" stroke="#f56565" stroke-width="1.6"/>
        <text x="801.6" y="691.0" fill="#fff" font-family="sans-serif" font-size="12" text-anchor="middle">proc.nidaq.recorder</text>
        <rect x="890.3" y="664.0" width="130.0" height="46" rx="6" fill="#742a2a" stroke="#f56565" stroke-width="1.6"/>
        <text x="955.3" y="691.0" fill="#fff" font-family="sans-serif" font-size="12" text-anchor="middle">proc.npx.display</text>
        <rect x="1034.3" y="664.0" width="136.2" height="46" rx="6" fill="#742a2a" stroke="#f56565" stroke-width="1.6"/>
        <text x="1102.4" y="691.0" fill="#fff" font-family="sans-serif" font-size="12" text-anchor="middle">proc.npx.record…</text>
        <rect x="1184.5" y="664.0" width="149.4" height="46" rx="6" fill="#742a2a" stroke="#f56565" stroke-width="1.6"/>
        <text x="1259.2" y="691.0" fill="#fff" font-family="sans-serif" font-size="12" text-anchor="middle">proc.rippledetector</text>
        <rect x="1347.9" y="664.0" width="130.0" height="46" rx="6" fill="#742a2a" stroke="#f56565" stroke-width="1.6"/>
        <text x="1412.9" y="691.0" fill="#fff" font-family="sans-serif" font-size="12" text-anchor="middle">proc.spike</text>
        <rect x="743.0" y="796.0" width="130.0" height="46" rx="6" fill="#1a202c" stroke="#a0aec0" stroke-width="1.6"/>
        <text x="808.0" y="816.0" fill="#fff" font-family="sans-serif" font-size="12" text-anchor="middle">File:</text>
        <text x="808.0" y="831.0" fill="#cbd5e0" font-family="sans-serif" font-size="10" text-anchor="middle">nidaq.bin</text>
        <rect x="887.0" y="796.0" width="130.0" height="46" rx="6" fill="#1a202c" stroke="#a0aec0" stroke-width="1.6"/>
        <text x="952.0" y="816.0" fill="#fff" font-family="sans-serif" font-size="12" text-anchor="middle">File:</text>
        <text x="952.0" y="831.0" fill="#cbd5e0" font-family="sans-serif" font-size="10" text-anchor="middle">raw.bin</text>
        <rect x="743.0" y="268.0" width="130.0" height="46" rx="6" fill="#2a4365" stroke="#4299e1" stroke-width="1.6"/>
        <text x="808.0" y="295.0" fill="#fff" font-family="sans-serif" font-size="12" text-anchor="middle">source.nidaq.sim</text>
        <rect x="887.0" y="268.0" width="130.0" height="46" rx="6" fill="#2a4365" stroke="#4299e1" stroke-width="1.6"/>
        <text x="952.0" y="295.0" fill="#fff" font-family="sans-serif" font-size="12" text-anchor="middle">source.npx.sim2</text>
    </g>
</svg>
